PathFileType  4	(X/Y/Z) C:\Users\antoi\Documents\MyRepositories\mobilecap\ResultsAnalysis
DataRate	CameraRate	NumFrames	NumMarkers	Units	OrigDataRate	OrigDataStartFrame	OrigNumFrames
100.0	100.0	4	51	mm	100.0	1	146
Frame#	Time	r_knee			r_shank_antsup			r_ankle			r_calc			r_5meta			r_toe			L_knee			L_shank_antsup			L_ankle			L_calc			L_5meta			L_toe			r_sh2			r_sh3			r_sh4			L_sh2			L_sh3			r_thigh1			r_thigh2			r_thigh3			r_thigh4			r_thigh5			L_thigh1			L_thigh2			L_thigh3			L_thigh4			r.ASIS			r.PSIS			L.ASIS			L.PSIS			C7			R_Shoulder			L_Shoulder			R_Sternum			L_Sternum			R_humerus			R_elbow_med			R_elbow_lat			R_forearm			R_wrist_radius			R_wrist_ulna			L_humerus			L_elbow_med			L_elbow_lat			L_forearm			L_wrist_radius			L_wrist_ulna			R_HJC			L_HJC			R_HJC_reg			L_HJC_reg			
		X1	Y1	Z1	X2	Y2	Z2	X3	Y3	Z3	X4	Y4	Z4	X5	Y5	Z5	X6	Y6	Z6	X7	Y7	Z7	X8	Y8	Z8	X9	Y9	Z9	X10	Y10	Z10	X11	Y11	Z11	X12	Y12	Z12	X13	Y13	Z13	X14	Y14	Z14	X15	Y15	Z15	X16	Y16	Z16	X17	Y17	Z17	X18	Y18	Z18	X19	Y19	Z19	X20	Y20	Z20	X21	Y21	Z21	X22	Y22	Z22	X23	Y23	Z23	X24	Y24	Z24	X25	Y25	Z25	X26	Y26	Z26	X27	Y27	Z27	X28	Y28	Z28	X29	Y29	Z29	X30	Y30	Z30	X31	Y31	Z31	X32	Y32	Z32	X33	Y33	Z33	X34	Y34	Z34	X35	Y35	Z35	X36	Y36	Z36	X37	Y37	Z37	X38	Y38	Z38	X39	Y39	Z39	X40	Y40	Z40	X41	Y41	Z41	X42	Y42	Z42	X43	Y43	Z43	X44	Y44	Z44	X45	Y45	Z45	X46	Y46	Z46	X47	Y47	Z47	X48	Y48	Z48	X49	Y49	Z49	X50	Y50	Z50	X51	Y51	Z51	

1	0.00000000	-41.83939	533.45122	-94.87185	6.03082	470.79562	-85.33299	88.11440	113.44966	-104.87619	49.77481	46.35125	-151.26461	251.63118	93.63637	-78.59222	268.34305	135.00040	-134.35704	-279.60305	519.30829	-378.54291	-292.71694	393.71386	-381.72197	-469.77918	114.70253	-349.90905	-551.88461	79.59019	-316.92781	-328.86178	29.88062	-377.89494	-313.13387	51.70623	-310.11060	44.81079	364.35899	-76.58758	-63.54827	446.89413	-64.22571	-33.98646	336.00531	-67.11870	-372.00311	435.77155	-402.35787	-417.75149	323.88642	-399.33017	-74.76112	851.95058	-69.32552	-32.25326	751.97603	-80.63597	-71.34091	705.04198	-48.86668	-176.43085	803.07002	-57.99996	-125.90507	698.81074	-61.30996	-151.86739	831.38856	-411.28104	-162.55808	695.12423	-398.99334	-269.33393	838.27374	-416.56352	-273.62849	698.34161	-407.41188	-97.92822	1030.62594	-120.23536	-296.20848	1074.93952	-185.53790	-109.30763	1019.46732	-378.99716	-299.80045	1076.71978	-288.62817	-259.94145	1584.97849	-280.39334	-223.78008	1558.11502	-110.09006	-194.14462	1565.64487	-417.59810	-106.00956	1514.78634	-233.33321	-99.31983	1512.03412	-288.80857	-282.72156	1299.46054	-10.57030	-306.01076	1201.64856	-84.41125	-313.45772	1215.26895	-1.73368	-245.51287	1071.25857	37.21730	-198.89911	966.19116	45.33057	-245.44035	964.79380	52.74081	-112.85123	1348.36523	-547.35830	-119.60034	1229.34555	-517.24525	-94.16931	1261.08630	-575.42231	68.36846	1190.18005	-580.49918	157.99629	1154.81445	-563.19044	142.49791	1124.90248	-584.65041	-186.72340	955.17345	-118.37854	-197.63790	948.33765	-348.38565	-176.27755	949.34611	-155.46861	-182.23502	952.29903	-326.44539	
2	0.01000000	-30.40107	532.92806	-95.05430	16.63366	468.78930	-85.66598	91.42823	111.09360	-105.95048	51.12170	45.38239	-151.61614	254.76904	87.42185	-80.67319	272.28562	128.35607	-136.51046	-267.20035	518.59645	-378.34724	-283.55263	393.15565	-381.92472	-467.05796	118.41245	-349.98297	-549.90422	85.50513	-316.87243	-328.72827	29.69029	-377.90724	-312.95963	51.60310	-310.05128	53.25170	361.61093	-77.47988	-53.34352	446.38514	-64.48507	-26.01614	334.71472	-67.50455	-361.40950	437.01586	-402.37789	-410.17905	326.48925	-398.99074	-61.66148	851.76977	-67.73171	-19.33844	751.81171	-79.93766	-58.68135	704.60350	-48.74431	-163.49451	802.99578	-57.24504	-112.72988	698.27491	-61.52880	-139.15104	830.61767	-409.94513	-149.94042	694.42889	-397.92479	-256.55948	837.36781	-415.35060	-260.68736	697.46971	-406.19776	-85.07074	1030.84328	-118.88877	-283.49887	1074.16752	-184.42074	-96.35961	1018.68220	-377.72037	-287.06224	1075.65946	-287.53010	-248.98442	1584.34890	-278.26768	-213.24653	1557.02315	-108.17284	-183.00854	1565.87154	-415.32576	-94.93386	1514.40702	-231.27134	-88.09651	1511.87856	-286.71781	-270.98475	1297.60363	-9.62538	-293.67432	1200.20386	-83.91087	-301.43658	1213.38119	-1.26255	-234.14101	1069.13806	37.61600	-188.12187	963.89607	45.71095	-234.58403	962.55837	52.88522	-102.27784	1348.90214	-545.90803	-108.42822	1229.62881	-515.98950	-83.29361	1262.02506	-574.39299	80.06193	1192.81727	-578.76353	170.11455	1158.84687	-561.06184	155.08339	1128.52031	-582.52112	-173.60325	955.06923	-116.82981	-184.44837	947.37861	-346.81170	-163.10203	948.98315	-153.94285	-169.01290	951.45752	-325.00358	
3	0.02000000	-19.07166	532.40284	-95.23167	27.15426	466.87148	-86.02560	94.78682	108.84646	-107.02132	52.51524	44.64391	-151.99870	257.80490	81.40532	-82.66305	276.21001	121.88806	-138.56435	-254.45655	517.93325	-378.18812	-274.06433	392.68784	-382.14260	-464.10981	122.33812	-350.05999	-547.67535	91.76624	-316.78231	-328.59564	29.50408	-377.90606	-312.73178	51.42603	-310.03320	61.71904	358.98224	-78.40575	-43.18926	445.89460	-64.70702	-18.00994	333.49742	-67.92893	-350.50721	438.36432	-402.40979	-402.31599	329.24334	-398.64566	-48.59848	851.57765	-66.06687	-6.54514	751.58505	-79.18766	-46.22699	704.14803	-48.57210	-150.65626	802.99712	-56.50626	-99.90686	697.88459	-61.65968	-126.27317	829.91982	-408.57288	-137.03727	693.77661	-396.87508	-243.59905	836.48756	-414.07927	-247.50838	696.61037	-404.98320	-72.12753	1031.11843	-117.52199	-270.70089	1073.47558	-183.26211	-83.30268	1017.97454	-376.40927	-274.23149	1074.66449	-286.40172	-237.99936	1583.78630	-276.11706	-202.62906	1556.00798	-106.21273	-171.88019	1566.14866	-413.04018	-83.81966	1514.11896	-229.19075	-76.83577	1511.79995	-284.62066	-259.23926	1295.84485	-8.63205	-281.32550	1198.85890	-83.36403	-289.39370	1211.59630	-0.73977	-222.73474	1067.12615	38.04820	-177.26154	961.70757	46.10305	-223.67416	960.43571	53.04027	-91.75279	1349.44446	-544.41013	-97.42554	1229.92204	-514.67852	-72.54165	1262.90010	-573.29322	91.57638	1195.30577	-576.97558	182.01048	1162.65160	-558.88346	167.43671	1131.93183	-580.34110	-160.39495	955.02870	-115.25483	-171.16349	946.49634	-345.21126	-149.84597	948.71838	-152.38574	-155.70261	950.68967	-323.52051	
4	0.03000000	-7.93002	531.90023	-95.38436	37.54269	465.12735	-86.41112	98.21088	106.80041	-108.04974	53.98394	44.31553	-152.41505	260.66007	75.70112	-84.47579	280.09677	115.69255	-140.42013	-241.08074	517.34892	-378.10010	-263.97178	392.38016	-382.39841	-460.72657	126.66699	-350.13976	-544.97160	98.67691	-316.62317	-328.46594	29.33369	-377.88126	-312.39697	51.11968	-310.08775	70.23549	356.58444	-79.36065	-33.11654	445.46181	-64.83588	-9.93330	332.43127	-68.38209	-339.02575	439.91164	-402.44314	-393.89956	332.27765	-398.29197	-35.59968	851.38114	-64.29901	6.03687	751.26786	-78.35277	-34.11318	703.68694	-48.30752	-137.98158	803.14757	-55.78299	-87.64757	697.73485	-61.63480	-113.09818	829.34558	-407.14402	-123.60653	693.20642	-395.86016	-230.29749	835.64676	-412.70919	-233.88122	695.76700	-403.77447	-59.04480	1031.50252	-116.11469	-257.75478	1072.93562	-182.03624	-70.05865	1017.40556	-375.03068	-261.23936	1073.79172	-285.22334	-226.96516	1583.34946	-273.92140	-191.86530	1555.13519	-104.17959	-160.76342	1566.52017	-410.73254	-72.64314	1514.00054	-227.07842	-65.51147	1511.86324	-282.51113	-247.46916	1294.27013	-7.54971	-268.95509	1197.69623	-82.72821	-277.30801	1209.99958	-0.12074	-211.25937	1065.31185	38.54180	-166.25199	959.71470	46.51765	-212.66117	958.51695	53.21941	-81.31993	1349.99633	-542.82719	-86.72683	1230.23342	-513.26529	-62.01374	1263.67154	-572.06805	102.75971	1197.52114	-575.09308	193.50661	1166.03784	-556.61458	179.36731	1134.96366	-578.06931	-147.04511	955.11005	-113.63000	-157.71560	945.75351	-343.56059	-136.46310	948.63751	-150.76935	-142.24233	950.05621	-321.95960	
